<?xml version="1.0" encoding="utf-8"?>
<!-- Generator: Adobe Illustrator 16.0.0, SVG Export Plug-In . SVG Version: 6.00 Build 0)  -->
<!DOCTYPE svg PUBLIC "-//W3C//DTD SVG 1.0//EN" "http://www.w3.org/TR/2001/REC-SVG-20010904/DTD/svg10.dtd">
<svg version="1.0" id="Layer_1" xmlns="http://www.w3.org/2000/svg" xmlns:xlink="http://www.w3.org/1999/xlink" x="0px" y="0px"
	 width="800px" height="800px" viewBox="0 0 800 800" enable-background="new 0 0 800 800" xml:space="preserve">
<g>
	<path fill="#122A72" d="M35.401,279.627l1.315,239.812l163.13-0.936c17.164-1.738,36.472-5.838,49.969-16.343
		c7.412-5.77,14.799-13.405,19.637-23.203v39.987l119.687-0.878c96.779-6.487,129.555-73.275,129.068-117.052
		c-0.508-45.644-30.775-115.777-139.709-120.951l-109.046-0.437v145.849c-6.445-14.237-20.297-28.097-50.079-36.365
		c22.588-12.887,32.763-32.987,30.387-54.084c-2.261-20.068-10.801-47.384-63.188-54.522L35.401,279.627 M155.526,311.276
		c30.038,5.403,36.017,22.415,36.093,35.271c0.08,13.97-7.815,32.254-36.093,33.677l-64.286-0.219v-68.289L155.526,311.276z
		 M327.485,311.494l35.05,0.496c69.216-0.849,91.58,48.192,91.33,87.76c-0.209,32.869-13.424,87.522-91.33,87.323l-35.927-0.437
		L327.485,311.494z M174.34,411.71c30.605,3.114,42.052,20.939,42.785,37.243c0.645,14.368-6.088,35.58-41.906,38.341H91.458
		v-74.707L174.34,411.71z"/>
	<path fill="#F9B20F" d="M622.918,272.606c-78.232,0-141.627,57.066-141.627,127.419c0,70.349,63.395,127.368,141.627,127.368
		c78.23,0,141.682-57.02,141.682-127.368C764.6,329.673,701.148,272.606,622.918,272.606 M623.684,301.348
		c45.139,0,81.732,43.792,81.732,97.801c0,54.011-36.594,97.8-81.732,97.8c-45.141,0-81.725-43.789-81.725-97.8
		C541.959,345.14,578.543,301.348,623.684,301.348z"/>
</g>
</svg>
